<?xml version="1.0" standalone="no"?>
<!DOCTYPE svg PUBLIC "-//W3C//DTD SVG 1.1//EN" "http://www.w3.org/Graphics/SVG/1.1/DTD/svg11.dtd" >
<svg>
<metadata>
Created by FontForge 20110222 at Thu May 30 14:44:36 2013
 By www-data
Merriweather Sans is a low contrast semi condesed sans serif typeface designed to be readable at very small sizes. MerriweatherSans is traditional in feeling despite a the modern shapes it has adopted for screens.
</metadata>
<defs>
<font id="MerriweatherSans-Book" horiz-adv-x="1393" >
  <font-face 
    font-family="Merriweather Sans"
    font-weight="300"
    font-stretch="normal"
    units-per-em="2048"
    panose-1="2 0 5 3 6 0 0 2 0 4"
    ascent="1638"
    descent="-410"
    x-height="1140"
    cap-height="1522"
    bbox="-95 -536 2682 1982"
    underline-thickness="137"
    underline-position="-212"
    stemh="131"
    stemv="166"
    unicode-range="U+0020-2122"
  />
    <missing-glyph />
    <glyph glyph-name="space" unicode=" " horiz-adv-x="655" 
 />
    <glyph glyph-name="numbersign" unicode="#" horiz-adv-x="1556" 
d="M383 0l32 358h-212v119h223l40 437h-227v117h238l31 338h145l-32 -338h374l30 338h145l-31 -338h230v-117h-241l-40 -437h234l1 -119h-246l-33 -358h-140l31 358h-376l-33 -358h-143zM570 477h376l38 437h-374z" />
    <glyph glyph-name="ampersand" unicode="&#x26;" horiz-adv-x="1532" 
d="M148 386c0 202 157 321 336 400c-90 115 -186 253 -186 411c0 218 160 349 403 349c235 0 372 -160 372 -332c0 -242 -157 -374 -375 -473c87 -119 294 -381 404 -497c69 64 109 147 109 270c0 99 -26 185 -38 214h147c12 -34 35 -114 35 -214c0 -152 -50 -271 -152 -358
c78 -55 146 -71 237 -69v-88c-28 -8 -60 -15 -113 -15c-95 0 -164 28 -241 84c-92 -47 -219 -84 -334 -84c-361 0 -604 141 -604 402zM625 840c175 73 305 180 305 372c0 105 -84 215 -233 215c-136 0 -244 -70 -244 -227c0 -147 70 -221 172 -360zM305 390
c0 -151 128 -284 438 -284c82 0 162 20 239 53c-128 139 -315 381 -422 528c-138 -65 -255 -154 -255 -297z" />
    <glyph glyph-name="quotesingle" unicode="'" horiz-adv-x="731" 
d="M299 966l-25 719h183l-24 -719h-134z" />
    <glyph glyph-name="parenleft" unicode="(" horiz-adv-x="848" 
d="M598 -327c-87 55 -456 378 -456 1051c0 575 364 957 456 1008l115 -57c-77 -56 -396 -377 -408 -951c-13 -618 315 -927 408 -994z" />
    <glyph glyph-name="parenright" unicode=")" horiz-adv-x="848" 
d="M250 1754c87 -55 456 -378 456 -1051c0 -575 -364 -957 -456 -1008l-115 57c77 56 396 377 408 951c13 618 -315 927 -408 994z" />
    <glyph glyph-name="asterisk" unicode="*" horiz-adv-x="1226" 
d="M544 648l10 281l25 167l-128 -110l-236 -152l-73 125l246 134l157 60c-4 2 -152 56 -158 57l-248 130l71 126l237 -151l131 -104c0 4 -27 158 -29 164l-14 283h146l-10 -281l-26 -165l128 108l238 152l72 -124l-247 -133l-156 -61l157 -57l250 -128l-74 -129l-235 150
l-133 104c2 -5 28 -159 29 -165l16 -280z" />
    <glyph glyph-name="plus" unicode="+" 
d="M627 288v251l5 172l-163 -5h-237v134h237l163 -8l-5 171v244h136v-244l-6 -171l149 8h255v-134h-255l-149 5l6 -172v-251h-136z" />
    <glyph glyph-name="comma" unicode="," horiz-adv-x="601" 
d="M201 111v48l105 99c119 -56 159 -195 159 -303c0 -226 -117 -398 -244 -454l-56 69l-1 21c68 39 143 157 143 313c0 82 -48 186 -106 207z" />
    <glyph glyph-name="hyphen" unicode="-" horiz-adv-x="1350" 
d="M247 705v135h856v-135h-856z" />
    <glyph glyph-name="period" unicode="." horiz-adv-x="601" 
d="M184 108c-1 79 58 141 122 141c72 0 110 -56 111 -124c3 -82 -56 -141 -122 -141c-58 0 -109 50 -111 124z" />
    <glyph glyph-name="slash" unicode="/" horiz-adv-x="854" 
d="M66 -363l570 1962h151l-571 -1962h-150z" />
    <glyph glyph-name="zero" unicode="0" horiz-adv-x="1378" 
d="M152 643c6 385 248 627 555 627c395 0 523 -283 520 -633c-3 -382 -226 -649 -545 -649c-387 0 -533 314 -530 655zM688 96c235 -3 374 205 375 534c1 293 -102 529 -366 529c-232 1 -380 -196 -382 -510c-1 -281 111 -549 373 -553z" />
    <glyph glyph-name="one" unicode="1" horiz-adv-x="914" 
d="M409 0v1067c-83 -35 -174 -69 -262 -90l-20 101c134 40 324 152 378 200l78 -22v-1256h-174z" />
    <glyph glyph-name="two" unicode="2" horiz-adv-x="1266" 
d="M156 86c351 207 722 516 722 809c0 158 -96 258 -277 258c-133 0 -273 -67 -352 -154l-71 95c73 88 233 193 441 193c314 0 429 -175 429 -383c0 -278 -267 -563 -616 -774l688 5v-135h-939z" />
    <glyph glyph-name="three" unicode="3" horiz-adv-x="1136" 
d="M148 -204c56 -10 113 -15 165 -14c332 3 540 196 540 398c0 180 -120 319 -389 288l-111 -27l-36 116c71 14 128 31 185 53c182 67 277 187 278 310c2 162 -113 232 -267 232c-164 0 -280 -73 -342 -121l-66 96c75 64 239 157 422 157c224 0 418 -113 418 -344
c0 -176 -131 -312 -293 -384c238 -17 371 -185 371 -364c0 -274 -261 -529 -679 -529c-62 0 -127 6 -195 18z" />
    <glyph glyph-name="four" unicode="4" horiz-adv-x="1314" 
d="M104 79c47 92 534 1106 585 1228h59l104 -64c-51 -120 -451 -913 -495 -999l-67 -115h537l13 487h153v-487h251v-129h-251v-376h-166v376h-682z" />
    <glyph glyph-name="five" unicode="5" horiz-adv-x="1222" 
d="M204 -222c27 -3 47 -5 80 -5c353 -1 618 201 618 454c0 218 -118 325 -344 325c-91 1 -198 -21 -306 -61l-41 25l61 736h750l-16 -144h-603l-49 -477c99 30 188 46 277 46c282 0 440 -168 440 -439c0 -284 -271 -582 -744 -586c-33 0 -89 2 -124 13z" />
    <glyph glyph-name="six" unicode="6" horiz-adv-x="1377" 
d="M168 570c0 534 441 923 824 998l46 -108c-410 -106 -682 -474 -689 -819c-6 -283 84 -540 352 -540c230 0 335 217 335 411c0 252 -134 343 -272 343c-97 0 -171 -35 -202 -60l-47 100c41 40 149 90 283 90c261 0 407 -210 407 -439c0 -285 -175 -562 -525 -562
c-324 0 -512 270 -512 586z" />
    <glyph glyph-name="seven" unicode="7" horiz-adv-x="1236" 
d="M377 -278c154 327 440 1082 564 1412l-791 1l1 136h937l37 -46l-569 -1555z" />
    <glyph glyph-name="eight" unicode="8" horiz-adv-x="1297" 
d="M157 385c0 159 104 318 331 419c-148 87 -271 199 -271 393c0 248 212 368 454 368c251 0 431 -137 431 -348c0 -154 -94 -330 -299 -427c185 -97 358 -204 360 -399c2 -278 -236 -407 -496 -407c-246 0 -510 112 -510 401zM688 851c148 51 259 189 261 344
c4 148 -103 253 -283 253c-166 0 -295 -88 -295 -241c0 -168 148 -265 317 -356zM318 398c0 -184 124 -296 356 -296c175 0 324 100 324 269c0 186 -198 270 -395 370c-159 -59 -285 -186 -285 -343z" />
    <glyph glyph-name="nine" unicode="9" horiz-adv-x="1396" 
d="M311 -270c438 107 715 543 722 874c6 300 -90 541 -348 541c-218 0 -337 -199 -337 -368c0 -258 129 -393 287 -393c109 0 161 31 200 55l40 -95c-38 -42 -136 -90 -283 -90c-265 0 -412 230 -412 468c0 309 194 542 530 542c329 0 501 -271 501 -586
c0 -560 -458 -972 -843 -1051z" />
    <glyph glyph-name="colon" unicode=":" horiz-adv-x="601" 
d="M184 108c-1 79 58 141 122 141c72 0 110 -56 111 -124c3 -82 -56 -141 -122 -141c-58 0 -109 50 -111 124zM184 932c-1 79 58 141 122 141c72 0 110 -56 111 -124c3 -82 -56 -141 -122 -141c-58 0 -109 50 -111 124z" />
    <glyph glyph-name="semicolon" unicode=";" horiz-adv-x="601" 
d="M190 111v48l105 99c119 -56 159 -195 159 -303c0 -226 -117 -398 -244 -454l-56 69l-1 21c68 39 143 157 143 313c0 82 -48 186 -106 207zM184 932c-1 79 58 141 122 141c72 0 110 -56 111 -124c3 -82 -56 -141 -122 -141c-58 0 -109 50 -111 124z" />
    <glyph glyph-name="less" unicode="&#x3c;" horiz-adv-x="1368" 
d="M171 712v122l962 459v-156l-789 -364l789 -360v-159z" />
    <glyph glyph-name="equal" unicode="=" horiz-adv-x="1397" 
d="M241 986v128h915v-128h-915zM241 428v127h915v-127h-915z" />
    <glyph glyph-name="greater" unicode="&#x3e;" horiz-adv-x="1368" 
d="M1197 834v-122l-962 -458v159l789 360l-789 364v156z" />
    <glyph glyph-name="question" unicode="?" horiz-adv-x="1047" 
d="M387 465c-40 53 -90 179 -92 294c-6 223 440 292 464 513c49 265 -124 424 -442 424c-90 0 -154 -12 -183 -24v123c19 16 118 42 209 42c461 0 625 -272 583 -556c-36 -310 -458 -348 -469 -539c-8 -94 26 -184 57 -276zM389 105c-2 76 58 137 119 137
c71 0 107 -54 109 -120c2 -81 -56 -138 -120 -138c-56 0 -106 48 -108 121z" />
    <glyph glyph-name="at" unicode="@" horiz-adv-x="2218" 
d="M224 425c0 680 457 1119 1029 1119c441 0 746 -257 746 -709c0 -534 -285 -833 -556 -833c-93 0 -128 70 -134 181c-3 36 -1 118 15 221c-97 -205 -240 -406 -391 -406c-135 0 -287 138 -281 437c6 280 173 636 553 636c92 0 182 -18 245 -57l133 26
c-36 -130 -102 -406 -129 -609c-28 -214 -26 -307 27 -307c181 0 382 301 382 684c0 488 -296 624 -639 624c-459 0 -865 -387 -865 -992c0 -575 342 -792 730 -792c208 0 348 56 413 93l30 -100c-85 -57 -271 -106 -458 -106c-480 0 -850 287 -850 890zM795 464
c-4 -204 58 -331 171 -331c146 0 388 507 426 752c-37 49 -131 71 -202 71c-255 0 -390 -265 -395 -492z" />
    <glyph glyph-name="A" unicode="A" 
d="M33 0l588 1538h166l574 -1538h-183l-147 418h-665l-153 -418h-180zM412 545h575l-244 695l-38 120l-38 -121z" />
    <glyph glyph-name="B" unicode="B" horiz-adv-x="1350" 
d="M206 0v1523l92 -1c127 0 201 13 340 13c334 0 498 -132 498 -356c0 -145 -65 -321 -244 -365c186 -9 349 -162 349 -361c0 -289 -154 -467 -600 -467c-110 0 -246 10 -346 14h-89zM374 848c65 -9 272 -4 347 -4c157 12 251 128 251 311c0 191 -149 260 -366 260
c-55 0 -177 -4 -232 -12v-555zM374 130c84 -16 193 -20 286 -20c261 0 409 83 409 323c0 202 -137 286 -366 290c-76 0 -278 2 -329 -4v-589z" />
    <glyph glyph-name="C" unicode="C" horiz-adv-x="1328" 
d="M107 754c0 504 315 784 696 784c231 0 335 -44 397 -58l-24 -150c-46 15 -135 70 -364 70c-316 0 -537 -228 -537 -634c0 -371 193 -648 527 -648c190 0 341 55 395 90l2 -144c-92 -30 -188 -80 -404 -80c-418 0 -688 309 -688 770z" />
    <glyph glyph-name="D" unicode="D" horiz-adv-x="1479" 
d="M206 0v1522c12 0 107 0 120 1c95 0 218 13 338 13c483 0 721 -271 720 -731c0 -499 -269 -828 -744 -821c-86 2 -221 13 -323 14c-20 1 -103 2 -111 2zM375 128c77 -11 202 -19 290 -18c321 4 541 210 543 670c2 447 -196 633 -584 633c-96 0 -180 -7 -249 -14v-1271z
" />
    <glyph glyph-name="E" unicode="E" horiz-adv-x="1203" 
d="M206 0v1522h858v-131h-689v-539h503v-131h-503v-588h762v-133h-931z" />
    <glyph glyph-name="F" unicode="F" horiz-adv-x="1085" 
d="M206 0v1522h851v-131h-682v-561h509v-131h-509v-699h-169z" />
    <glyph glyph-name="G" unicode="G" horiz-adv-x="1442" 
d="M110 750c0 520 312 788 705 788c218 0 301 -38 420 -61l-7 -152c-85 39 -211 80 -423 80c-285 0 -519 -219 -519 -635c0 -380 184 -656 514 -656c162 0 300 37 358 67v436l-316 11v122h479v-659c-85 -5 -210 -107 -518 -107c-436 0 -693 328 -693 766z" />
    <glyph glyph-name="H" unicode="H" horiz-adv-x="1542" 
d="M206 0v1522h169v-682h792v682h169v-1522h-169v710h-792v-710h-169z" />
    <glyph glyph-name="I" unicode="I" horiz-adv-x="613" 
d="M221 0v1522h171v-1522h-171z" />
    <glyph glyph-name="J" unicode="J" horiz-adv-x="694" 
d="M-39 -243c124 34 254 125 298 274c36 119 34 313 34 523v968h172v-985c0 -177 5 -339 -19 -472c-44 -243 -258 -372 -432 -397z" />
    <glyph glyph-name="L" unicode="L" horiz-adv-x="1066" 
d="M206 0v1522h172v-1389h629v-133h-801z" />
    <glyph glyph-name="M" unicode="M" horiz-adv-x="1925" 
d="M149 -1l162 1523h240l337 -989l75 -286l73 286l318 989h228l196 -1522h-171l-106 947l-44 450l-124 -450l-323 -962h-93l-339 962l-136 450l-38 -450l-91 -947z" />
    <glyph glyph-name="N" unicode="N" horiz-adv-x="1553" 
d="M205 0v1522h157l701 -1060l142 -247l-12 311v996h155v-1522h-155l-687 1034l-156 265l11 -329v-970h-156z" />
    <glyph glyph-name="O" unicode="O" horiz-adv-x="1572" 
d="M111 769c10 506 314 766 699 769c403 3 660 -308 651 -774c-10 -505 -296 -772 -681 -780c-420 -9 -678 325 -669 785zM785 114c300 2 502 232 505 658c1 350 -166 639 -486 637c-291 -3 -520 -218 -522 -651c-2 -348 171 -646 503 -644z" />
    <glyph glyph-name="P" unicode="P" horiz-adv-x="1279" 
d="M206 0v1522h82c113 0 245 14 378 14c322 0 527 -136 527 -491c0 -330 -218 -516 -571 -518c-108 -1 -207 7 -247 8v-535h-169zM375 664c62 -8 176 -12 237 -12c231 3 412 102 412 392c0 266 -135 376 -408 370c-78 -2 -170 -6 -241 -16v-734z" />
    <glyph glyph-name="Q" unicode="Q" horiz-adv-x="1570" 
d="M110 769c10 506 314 766 699 769c403 3 660 -308 651 -774c-9 -422 -210 -678 -501 -755c83 -100 212 -158 373 -158c52 0 135 5 178 23v-123c-31 -21 -103 -38 -177 -38c-208 0 -375 56 -533 272c-7 0 -14 -1 -21 -1c-420 -9 -678 325 -669 785zM784 114
c300 2 502 232 505 658c1 350 -166 639 -486 637c-291 -3 -520 -218 -522 -651c-2 -348 171 -646 503 -644z" />
    <glyph glyph-name="R" unicode="R" horiz-adv-x="1359" 
d="M206 0v1522s89 1 100 1c95 1 229 13 360 13c309 0 522 -111 522 -420c0 -230 -123 -373 -309 -426c149 -90 258 -409 357 -588c21 -39 40 -74 58 -102h-192c-16 21 -26 44 -54 102c-87 178 -194 520 -364 562c-79 -3 -177 -3 -309 -1v-663h-169zM375 783
c49 -5 226 -6 284 -6c214 2 355 109 356 331c0 217 -116 303 -376 303c-91 0 -202 -5 -264 -16v-612z" />
    <glyph glyph-name="S" unicode="S" horiz-adv-x="1154" 
d="M136 74l41 139c81 -50 236 -94 380 -94c211 0 345 79 345 247c0 174 -151 243 -364 340c-198 90 -398 231 -398 456c0 280 260 376 491 376c192 0 306 -46 360 -82l-35 -133c-74 48 -169 82 -326 82c-162 0 -329 -69 -328 -221c0 -171 121 -242 337 -346
c203 -97 429 -212 429 -453c0 -268 -206 -401 -500 -401c-200 0 -377 53 -432 90z" />
    <glyph glyph-name="T" unicode="T" horiz-adv-x="1279" 
d="M553 0v1391h-491v131h1160v-131h-498v-1391h-171z" />
    <glyph glyph-name="U" unicode="U" horiz-adv-x="1474" 
d="M171 644v879h169l-1 -839c0 -442 153 -567 410 -567c241 0 387 131 387 568v837h168v-877c0 -439 -186 -661 -560 -661c-402 0 -574 232 -573 660z" />
    <glyph glyph-name="V" unicode="V" horiz-adv-x="1331" 
d="M605 -16l-574 1538h179l391 -1085l76 -244l76 244l370 1085h178l-554 -1538h-142z" />
    <glyph glyph-name="W" unicode="W" horiz-adv-x="1909" 
d="M444 -16l-412 1538h174l249 -1006l69 -335l74 335l298 1006h125l301 -1006l85 -332l64 331l236 1007h171l-392 -1538h-166l-325 1096l-37 182l-37 -182l-329 -1096h-148z" />
    <glyph glyph-name="X" unicode="X" horiz-adv-x="1330" 
d="M73 0l490 782l-484 740l191 1l295 -465l107 -177l105 177l283 464h183l-480 -764l494 -758h-193l-314 503l-94 152l-91 -152l-309 -503h-183z" />
    <glyph glyph-name="Y" unicode="Y" horiz-adv-x="1249" 
d="M548 0v584l-517 938h181l374 -701l51 -115l44 115l359 701h179l-499 -935v-587h-172z" />
    <glyph glyph-name="Z" unicode="Z" horiz-adv-x="1309" 
d="M106 66l808 1209l85 112h-810v135h995l36 -64l-805 -1219l-86 -106h849v-133h-1036z" />
    <glyph glyph-name="bracketleft" unicode="[" horiz-adv-x="841" 
d="M226 2v1542c0 152 28 193 150 193c104 0 221 -11 312 -20v-90h-302v-1709l302 -2v-87c-91 -13 -208 -20 -312 -20c-122 0 -150 41 -150 193z" />
    <glyph glyph-name="backslash" unicode="\" horiz-adv-x="854" 
d="M217 1599l570 -1962h-150l-571 1962h151z" />
    <glyph glyph-name="bracketright" unicode="]" horiz-adv-x="841" 
d="M615 1544v-1542c0 -152 -28 -193 -150 -193c-104 0 -221 7 -312 20v87l302 2v1709h-302v90c91 9 208 20 312 20c122 0 150 -41 150 -193z" />
    <glyph glyph-name="asciicircum" unicode="^" horiz-adv-x="1363" 
d="M189 509l414 1022h154l417 -1022h-160l-334 839l-330 -839h-161z" />
    <glyph glyph-name="underscore" unicode="_" horiz-adv-x="1692" 
d="M-40 -297h1772v-105h-1772v105z" />
    <glyph glyph-name="grave" unicode="`" horiz-adv-x="557" 
d="M422 1315c-95 63 -292 248 -372 363l120 103c101 -131 220 -265 337 -398z" />
    <glyph glyph-name="a" unicode="a" horiz-adv-x="1145" 
d="M110 301c0 150 87 255 246 314c134 50 326 67 445 67v132c0 184 -96 216 -266 216c-116 0 -275 -54 -335 -97l-41 110c39 26 234 114 419 114c232 0 389 -64 389 -350v-823h-68c-58 0 -88 5 -88 80l-1 42c-62 -56 -191 -122 -353 -122c-202 0 -347 119 -347 317zM275 314
c0 -120 67 -205 231 -205c143 0 269 71 295 99v367c-82 0 -256 -13 -353 -53c-114 -43 -173 -107 -173 -208z" />
    <glyph glyph-name="b" unicode="b" horiz-adv-x="1244" 
d="M184 64v1597h167v-475l-7 -170c59 57 166 140 347 140c249 0 450 -179 450 -544c0 -373 -232 -629 -574 -629c-167 0 -344 54 -383 81zM351 155c38 -29 129 -49 234 -49c202 0 383 159 386 484c2 282 -111 435 -325 435c-127 0 -239 -65 -295 -116v-754z" />
    <glyph glyph-name="c" unicode="c" horiz-adv-x="1012" 
d="M106 553c-1 345 190 603 538 603c134 0 237 -32 277 -59l-29 -132c-56 41 -150 62 -257 62c-187 0 -359 -143 -367 -441c-8 -319 162 -476 356 -476c132 0 239 47 288 79l35 -96c-72 -66 -204 -109 -348 -109c-314 0 -493 244 -493 569z" />
    <glyph glyph-name="d" unicode="d" horiz-adv-x="1239" 
d="M102 533c0 364 228 623 572 623c92 0 169 -18 221 -38l-3 68v478h167v-1676h-72c-51 0 -85 6 -85 69v69c-57 -55 -164 -142 -350 -142c-233 0 -450 163 -450 549zM597 115c131 0 239 66 295 114v749c-37 32 -112 56 -234 56c-218 0 -382 -174 -385 -478
c-4 -297 120 -441 324 -441z" />
    <glyph glyph-name="e" unicode="e" horiz-adv-x="1128" 
d="M104 565c0 343 183 587 511 591c241 3 402 -168 409 -428c0 -73 0 -128 -9 -175h-748c0 -13 0 -27 1 -40c10 -293 165 -403 376 -403c103 0 250 37 310 76l32 -97c-75 -62 -244 -105 -385 -105c-320 0 -497 216 -497 581zM274 665h593c12 209 -55 372 -262 372
c-169 0 -301 -109 -331 -372z" />
    <glyph glyph-name="f" unicode="f" horiz-adv-x="801" 
d="M272 0v1014h-196v92l196 34v92c0 338 210 450 392 450c61 0 115 -13 136 -21v-133c-36 13 -80 20 -159 20c-120 0 -202 -95 -202 -280v-128h303v-126h-303v-1014h-167z" />
    <glyph glyph-name="g" unicode="g" horiz-adv-x="1224" 
d="M121 -194c0 116 88 201 159 240c-72 40 -87 105 -86 171c1 77 55 165 136 223c-115 63 -188 175 -188 318c0 271 198 393 441 398c105 2 203 -20 281 -68c48 25 138 49 220 49h107v-134h-232c43 -58 69 -133 69 -225c0 -258 -200 -398 -451 -398c-55 0 -107 7 -154 21
c-38 -29 -76 -85 -76 -142c0 -97 42 -127 163 -127h247c327 0 392 -140 392 -283c0 -226 -246 -367 -550 -366c-290 0 -478 96 -478 323zM580 492c166 0 282 77 282 280c0 182 -103 271 -270 270c-148 -1 -284 -63 -284 -276c0 -156 94 -274 272 -274zM284 -174
c0 -160 104 -228 321 -228c196 0 384 69 384 216c0 131 -75 186 -300 186h-154c-66 0 -118 3 -159 10c-45 -37 -92 -94 -92 -184z" />
    <glyph glyph-name="h" unicode="h" horiz-adv-x="1309" 
d="M193 0v1664h167v-507l-8 -156c85 67 254 153 419 156c250 4 353 -124 352 -480v-677h-167v689c1 246 -59 334 -253 328c-114 -3 -253 -69 -343 -138v-879h-167z" />
    <glyph glyph-name="i" unicode="i" horiz-adv-x="588" 
d="M211 0v1139h166v-1139h-166zM290 1388c-58 0 -107 42 -107 114c0 74 62 128 123 128c72 0 107 -48 107 -113c0 -78 -59 -129 -123 -129z" />
    <glyph glyph-name="j" unicode="j" horiz-adv-x="562" 
d="M211 -41v1180h166v-1116c0 -372 -112 -530 -339 -530c-36 0 -118 5 -133 13v124c21 -9 77 -19 116 -19c134 0 190 104 190 348zM288 1388c-58 0 -107 42 -107 114c0 74 62 128 123 128c72 0 107 -48 107 -113c0 -78 -59 -129 -123 -129z" />
    <glyph glyph-name="k" unicode="k" horiz-adv-x="1166" 
d="M188 0v1661h166v-953l-4 -123l537 554h198l-445 -447l494 -692h-191l-414 581l-179 -180l4 -177v-224h-166z" />
    <glyph glyph-name="l" unicode="l" horiz-adv-x="594" 
d="M214 0v1664h167v-1664h-167z" />
    <glyph glyph-name="m" unicode="m" horiz-adv-x="1978" 
d="M193 0v1139h149l1 -146c84 67 261 161 419 164c144 2 234 -37 282 -153c86 66 252 151 414 153c241 3 334 -115 334 -454v-703h-166v695c0 212 -31 328 -231 322c-108 -2 -237 -63 -322 -123c9 -52 13 -114 13 -186v-708h-167v697c0 227 -37 328 -224 319
c-102 -4 -245 -64 -335 -138v-878h-167z" />
    <glyph glyph-name="n" unicode="n" horiz-adv-x="1288" 
d="M193 0v1139h149l1 -146c81 61 253 161 419 164c248 4 341 -117 341 -452v-705h-167v706c0 226 -48 320 -243 312c-108 -2 -247 -71 -333 -140v-878h-167z" />
    <glyph glyph-name="o" unicode="o" horiz-adv-x="1223" 
d="M105 591c5 364 228 565 518 565c356 0 499 -279 495 -602c-5 -363 -222 -570 -516 -570c-362 0 -501 285 -497 607zM606 103c217 -3 342 173 343 458c1 262 -102 472 -329 474c-215 3 -344 -161 -345 -446c-1 -260 99 -483 331 -486z" />
    <glyph glyph-name="p" unicode="p" horiz-adv-x="1247" 
d="M350 22l3 -161v-367h-166v1646h150l1 -133c54 54 161 149 356 149c234 0 450 -163 450 -549c0 -364 -227 -623 -571 -623c-94 0 -171 18 -223 38zM353 163c37 -32 112 -57 235 -57c219 0 382 174 386 478c3 297 -120 441 -325 441c-132 0 -241 -68 -296 -116v-746z" />
    <glyph glyph-name="q" unicode="q" horiz-adv-x="1238" 
d="M102 533c0 364 228 623 572 623c99 0 186 -21 241 -42v2l145 28v-1650h-167v367l4 259c-59 -55 -165 -136 -345 -136c-233 0 -450 163 -450 549zM597 115c131 0 240 66 296 114v749c-36 31 -112 56 -235 56c-218 0 -382 -174 -385 -478c-4 -297 120 -441 324 -441z" />
    <glyph glyph-name="r" unicode="r" horiz-adv-x="826" 
d="M185 0v1139h142l10 -152c46 60 199 169 347 169c52 0 89 -5 108 -13v-157c-19 10 -55 23 -138 23c-132 0 -245 -75 -302 -132v-877h-167z" />
    <glyph glyph-name="s" unicode="s" horiz-adv-x="984" 
d="M123 66l26 126c43 -30 190 -82 328 -84c146 0 250 59 250 177c0 120 -136 173 -272 228c-175 71 -325 169 -323 355c4 196 184 287 398 288c133 1 253 -36 293 -59l-28 -127c-39 30 -147 62 -259 62c-163 0 -248 -65 -249 -155c-2 -120 101 -177 249 -234
c150 -59 347 -149 347 -346c0 -200 -155 -313 -398 -313c-146 0 -296 39 -362 82z" />
    <glyph glyph-name="t" unicode="t" horiz-adv-x="849" 
d="M240 270v744h-159v91c74 22 157 25 175 73c13 34 29 155 50 222h100v-260h354v-126h-354v-650c0 -226 39 -246 152 -246c68 0 176 31 214 57l29 -97c-58 -47 -197 -94 -301 -94c-140 0 -260 42 -260 286z" />
    <glyph glyph-name="u" unicode="u" horiz-adv-x="1249" 
d="M183 471v669h166v-676c0 -285 57 -342 234 -342c116 0 250 59 314 107v911h167v-1152h-64c-53 0 -84 7 -84 68v61c-106 -74 -266 -133 -399 -133c-294 0 -334 198 -334 487z" />
    <glyph glyph-name="v" unicode="v" horiz-adv-x="1114" 
d="M493 -18l-456 1158h180l259 -708l90 -278l84 278l249 708h178l-442 -1158h-142z" />
    <glyph glyph-name="w" unicode="w" horiz-adv-x="1635" 
d="M398 -18l-359 1158h167l229 -783l43 -180l40 180l221 783h165l223 -783l42 -184l43 179l221 788h163l-355 -1158h-154l-237 837l-30 147l-32 -147l-232 -837h-158z" />
    <glyph glyph-name="x" unicode="x" horiz-adv-x="1137" 
d="M74 0l406 576l-406 564h189l272 -398l38 -62l36 67l272 393h187l-408 -561l411 -579h-193l-275 407l-40 63l-37 -70l-261 -400h-191z" />
    <glyph glyph-name="y" unicode="y" horiz-adv-x="1107" 
d="M120 -356c22 -7 70 -12 99 -12c115 0 239 74 314 368h-49l-428 1140h178l274 -782l76 -224l66 224l237 782h180l-392 -1169c-90 -273 -191 -423 -341 -465c-29 -7 -72 -13 -103 -13c-30 0 -99 6 -111 14v137z" />
    <glyph glyph-name="z" unicode="z" horiz-adv-x="1072" 
d="M93 65l596 849l69 98h-616v128h812l29 -74l-594 -846l-71 -98h655v-122h-846z" />
    <glyph glyph-name="braceleft" unicode="{" horiz-adv-x="986" 
d="M369 2v583c0 46 -123 102 -251 139v110c137 45 251 86 251 135v575c0 152 34 197 157 197c109 0 216 -11 297 -20v-92h-295v-657c0 -33 -12 -59 -37 -80c-33 -32 -140 -85 -208 -114c68 -28 177 -85 211 -120c22 -22 34 -47 34 -76v-664h295v-85
c-86 -20 -188 -28 -297 -28c-122 0 -157 45 -157 197z" />
    <glyph glyph-name="bar" unicode="|" horiz-adv-x="842" 
d="M344 -187v1967h154v-1967h-154z" />
    <glyph glyph-name="braceright" unicode="}" horiz-adv-x="986" 
d="M617 585v-583c0 -152 -35 -197 -157 -197c-109 0 -211 8 -297 28v85h295v664c0 29 12 54 34 76c34 35 143 92 211 120c-68 29 -175 82 -208 114c-25 21 -37 47 -37 80v657h-295v92c81 9 188 20 297 20c123 0 157 -45 157 -197v-575c0 -49 114 -90 251 -135v-110
c-128 -37 -251 -93 -251 -139z" />
    <glyph glyph-name="asciitilde" unicode="~" horiz-adv-x="1438" 
d="M310 707l-88 69c34 78 150 199 307 199c194 0 234 -172 387 -172c102 0 173 59 220 125l79 -76c-39 -93 -147 -192 -308 -192c-194 0 -228 173 -384 173c-102 0 -167 -61 -213 -126z" />
    <glyph glyph-name="exclamdown" unicode="&#xa1;" horiz-adv-x="601" 
d="M369 871l21 -1307h-187l18 1307h148zM417 1236c2 -79 -58 -141 -121 -141c-73 0 -110 56 -112 124c-2 82 56 141 122 141c59 0 109 -50 111 -124z" />
    <glyph glyph-name="exclam" unicode="!" horiz-adv-x="601" 
d="M232 473l-21 1307h187l-18 -1307h-148zM184 108c-2 79 58 141 121 141c73 0 110 -56 112 -124c2 -82 -56 -141 -122 -141c-59 0 -109 50 -111 124z" />
    <glyph glyph-name="sterling" unicode="&#xa3;" horiz-adv-x="1546" 
d="M141 54c0 72 66 132 212 140c21 39 89 127 89 271v299h-183v116h183v177c0 281 176 481 463 481c158 0 259 -39 329 -94l-80 -122c-57 50 -133 89 -266 89c-138 0 -281 -87 -279 -376v-155h385v-116h-384v-105c2 -282 -44 -426 -106 -490c152 5 258 -73 458 -73
c199 0 273 93 273 231c0 64 -35 146 -89 173l119 61c62 -37 128 -137 128 -244c0 -201 -117 -341 -411 -341c-285 0 -455 134 -591 92c-34 -39 -99 -78 -164 -78c-37 0 -86 25 -86 64z" />
    <glyph glyph-name="brokenbar" unicode="&#xa6;" horiz-adv-x="842" 
d="M344 946v834h154v-834h-154zM344 -186v831h154v-831h-154z" />
    <glyph glyph-name="dieresis" unicode="&#xa8;" horiz-adv-x="782" 
d="M608 1408c-55 0 -99 38 -99 106c0 70 58 119 117 119c69 0 99 -43 99 -105c0 -74 -55 -120 -117 -120zM157 1408c-56 0 -100 38 -100 106c0 70 59 119 118 119c70 0 99 -43 99 -105c0 -74 -55 -120 -117 -120z" />
    <glyph glyph-name="copyright" unicode="&#xa9;" horiz-adv-x="2133" 
d="M204 965c0 480 382 866 862 866s863 -386 863 -866c0 -482 -383 -870 -863 -870s-862 388 -862 870zM313 965c0 -426 325 -771 753 -771s753 345 753 771c0 424 -325 769 -753 769s-753 -345 -753 -769zM627 961c0 280 172 490 488 490c130 0 206 -39 242 -64l-26 -124
c-51 36 -122 68 -229 68c-206 0 -327 -148 -327 -359c0 -222 123 -371 316 -371c111 0 199 36 251 66l35 -96c-61 -49 -174 -90 -306 -90c-275 0 -444 224 -444 480z" />
    <glyph glyph-name="guillemotleft" unicode="&#xab;" horiz-adv-x="1931" 
d="M245 542v141l653 448l44 -125l-534 -391l534 -388l-44 -121zM971 542v141l653 448l44 -125l-534 -391l534 -388l-44 -121z" />
    <glyph glyph-name="guilsinglleft" unicode="&#x2039;" horiz-adv-x="1204" 
d="M245 542v141l653 448l44 -125l-534 -391l534 -388l-44 -121z" />
    <glyph glyph-name="registered" unicode="&#xae;" horiz-adv-x="2133" 
d="M204 965c0 480 382 866 862 866s863 -386 863 -866c0 -482 -383 -870 -863 -870s-862 388 -862 870zM313 965c0 -426 325 -771 753 -771s753 345 753 771c0 424 -325 769 -753 769s-753 -345 -753 -769zM752 482v962h74c83 0 165 6 250 6c249 0 357 -120 357 -269
c0 -146 -58 -261 -220 -298c88 -56 129 -188 180 -275c18 -33 36 -57 83 -126l-156 1c-25 31 -42 64 -62 105c-47 87 -93 243 -199 275h-172v-381h-135zM887 964c22 -2 149 -3 174 -3c150 2 232 62 232 203c0 116 -67 189 -254 185c-47 -1 -85 -3 -152 -10v-375z" />
    <glyph glyph-name="macron" unicode="&#xaf;" horiz-adv-x="643" 
d="M50 1452v124h543v-124h-543z" />
    <glyph glyph-name="degree" unicode="&#xb0;" horiz-adv-x="909" 
d="M454 947c-184 0 -333 143 -333 331c0 191 145 331 333 331c186 0 333 -142 333 -331c0 -192 -144 -331 -333 -331zM454 1050c126 0 223 96 223 228c0 129 -99 227 -223 227c-125 0 -222 -96 -222 -227c0 -129 99 -228 222 -228z" />
    <glyph glyph-name="plusminus" unicode="&#xb1;" 
d="M251 0v126h890v-126h-890zM627 288v251l5 172l-163 -5h-237v134h237l163 -8l-5 171v244h136v-244l-6 -171l149 8h255v-134h-255l-149 5l6 -172v-251h-136z" />
    <glyph glyph-name="acute" unicode="&#xb4;" horiz-adv-x="557" 
d="M136 1315l-86 68c119 130 234 256 337 398l120 -103c-68 -101 -283 -306 -371 -363z" />
    <glyph glyph-name="paragraph" unicode="&#xb6;" horiz-adv-x="1319" 
d="M532 0v832c-297 0 -441 136 -441 445c0 262 187 434 558 434c94 0 330 -19 445 -22v-1689h-140v1579c-18 0 -254 9 -282 7v-1586h-140z" />
    <glyph glyph-name="periodcentered" unicode="&#xb7;" horiz-adv-x="592" 
d="M179 731c-1 79 58 141 122 141c72 0 110 -56 111 -124c3 -82 -56 -141 -122 -141c-58 0 -109 50 -111 124z" />
    <glyph glyph-name="cedilla" unicode="&#xb8;" horiz-adv-x="468" 
d="M268 21l64 4l34 -4c39 -51 57 -140 51 -253c-10 -169 -113 -232 -229 -232c-49 0 -117 12 -140 28l12 109c17 -11 53 -18 90 -18c80 0 137 47 143 165c9 103 -6 160 -25 201z" />
    <glyph glyph-name="guillemotright" unicode="&#xbb;" horiz-adv-x="1931" 
d="M959 683v-141l-653 -436l-44 121l534 388l-534 391l44 125zM1685 683v-141l-653 -436l-44 121l534 388l-534 391l44 125z" />
    <glyph glyph-name="questiondown" unicode="&#xbf;" horiz-adv-x="1047" 
d="M659 1059c40 -53 90 -179 92 -294c6 -223 -440 -292 -464 -513c-49 -265 124 -424 442 -424c90 0 154 12 183 24v-123c-19 -16 -118 -42 -209 -42c-461 0 -625 272 -583 556c36 310 458 348 469 539c8 94 -26 184 -57 276zM657 1419c2 -76 -58 -137 -119 -137
c-71 0 -107 54 -109 120c-2 81 56 138 120 138c56 0 106 -48 108 -121z" />
    <glyph glyph-name="multiply" unicode="&#xd7;" horiz-adv-x="1370" 
d="M349 326l-99 98l348 347l-348 356l99 97l337 -362l336 362l99 -97l-348 -353l348 -350l-99 -98l-336 354z" />
    <glyph glyph-name="germandbls" unicode="&#xdf;" horiz-adv-x="1271" 
d="M191 0v986v28h-147v99l160 30c53 304 264 436 513 436c187 0 365 -86 365 -271c0 -236 -226 -293 -226 -434c0 -204 371 -231 371 -563c0 -240 -209 -327 -394 -327c-100 0 -191 16 -231 33v132c38 -20 117 -47 237 -47c111 0 219 58 219 191c-1 248 -357 273 -357 562
c0 181 215 233 215 432c0 127 -105 173 -227 173c-192 0 -331 -131 -331 -485v-975h-167z" />
    <glyph glyph-name="eth" unicode="&#xf0;" horiz-adv-x="1207" 
d="M109 557c0 378 213 599 511 598c104 -1 197 -43 264 -112c-59 177 -172 331 -313 440l-141 -160l-89 70l141 153c-76 48 -165 93 -237 116l40 97c98 -30 198 -78 278 -125c53 58 135 159 135 159l90 -69s-79 -92 -135 -151l9 -6c289 -215 454 -551 454 -955
c0 -430 -206 -635 -500 -639c-307 -5 -507 222 -507 584zM275 563c0 -304 145 -475 347 -475c171 0 327 154 327 486c0 81 2 179 -9 277c-28 97 -142 179 -314 179c-222 0 -351 -185 -351 -467z" />
    <glyph glyph-name="endash" unicode="&#x2013;" horiz-adv-x="1692" 
d="M240 705v135h1212v-135h-1212z" />
    <glyph glyph-name="emdash" unicode="&#x2014;" horiz-adv-x="2343" 
d="M240 705v135h1863v-135h-1863z" />
    <glyph glyph-name="quoteleft" unicode="&#x2018;" horiz-adv-x="498" 
d="M294 963c-119 41 -193 185 -193 344c0 219 128 375 210 430l72 -47v-25c-57 -46 -125 -183 -125 -327c0 -100 56 -204 122 -232v-47z" />
    <glyph glyph-name="quoteright" unicode="&#x2019;" horiz-adv-x="498" 
d="M195 963l-72 47v25c48 47 110 184 110 327c0 104 -49 211 -107 240v47l108 88c96 -41 156 -155 156 -313c0 -252 -119 -406 -195 -461z" />
    <glyph glyph-name="quotesinglbase" unicode="&#x201a;" horiz-adv-x="498" 
d="M195 -536l-72 47v25c48 47 110 184 110 327c0 104 -49 211 -107 240v47l108 88c96 -41 156 -155 156 -313c0 -252 -119 -406 -195 -461z" />
    <glyph glyph-name="quotedblleft" unicode="&#x201c;" horiz-adv-x="981" 
d="M294 963c-119 41 -193 185 -193 344c0 219 128 375 210 430l72 -47v-25c-57 -46 -125 -183 -125 -327c0 -100 56 -204 122 -232v-47zM782 963c-119 41 -193 185 -193 344c0 219 128 375 210 430l72 -47v-25c-57 -46 -125 -183 -125 -327c0 -100 56 -204 122 -232v-47z
" />
    <glyph glyph-name="quotedblright" unicode="&#x201d;" horiz-adv-x="981" 
d="M195 963l-72 47v25c48 47 110 184 110 327c0 104 -49 211 -107 240v47l108 88c96 -41 156 -155 156 -313c0 -252 -119 -406 -195 -461zM683 963l-72 47v25c48 47 110 184 110 327c0 104 -49 211 -107 240v47l108 88c96 -41 156 -155 156 -313c0 -252 -119 -406 -195 -461
z" />
    <glyph glyph-name="quotedblbase" unicode="&#x201e;" horiz-adv-x="981" 
d="M195 -517l-72 47v25c48 47 110 184 110 327c0 104 -49 211 -107 240v47l108 88c96 -41 156 -155 156 -313c0 -252 -119 -406 -195 -461zM681 -517l-72 47v25c48 47 110 184 110 327c0 104 -49 211 -107 240v47l108 88c96 -41 156 -155 156 -313
c0 -252 -119 -406 -195 -461z" />
    <glyph glyph-name="dagger" unicode="&#x2020;" horiz-adv-x="1026" 
d="M446 200l-8 949l-312 -2l1 125l311 -3l-3 389h156l-3 -389l312 3v-125l-312 2l-9 -949h-133z" />
    <glyph glyph-name="bullet" unicode="&#x2022;" horiz-adv-x="852" 
d="M418 548c-94 0 -168 81 -163 176c5 100 86 178 179 178c94 0 168 -76 163 -174c-4 -99 -85 -180 -179 -180z" />
    <glyph glyph-name="guilsinglright" unicode="&#x203a;" horiz-adv-x="1204" 
d="M959 683v-141l-653 -436l-44 121l534 388l-534 391l44 125z" />
    <glyph glyph-name="quotedbl" unicode="&#x22;" horiz-adv-x="1214" 
d="M299 966l-25 719h183l-24 -719h-134zM781 966l-25 719h183l-24 -719h-134z" />
    <glyph glyph-name="logicalnot" unicode="&#xac;" horiz-adv-x="1470" 
d="M235 726v126h990v-529h-152v403h-838z" />
    <glyph glyph-name="yen" unicode="&#xa5;" horiz-adv-x="1542" 
d="M283 322v110h406v257h-406v110h374l-469 723h182l330 -534l73 -139l69 144l336 529h178l-476 -723h365v-110h-390v-257h390v-110h-390v-322h-166v322h-406z" />
    <glyph glyph-name="divide" unicode="&#xf7;" 
d="M694 1058c-59 0 -107 40 -107 112c0 76 61 129 124 129c73 0 108 -47 108 -113c0 -79 -60 -128 -125 -128zM232 709v130h929v-130h-929zM586 373c0 75 61 128 124 128c73 0 108 -47 108 -112c0 -79 -59 -128 -125 -128c-58 0 -107 40 -107 112z" />
    <glyph glyph-name="daggerdbl" unicode="&#x2021;" horiz-adv-x="1026" 
d="M126 497v125l311 -2v529l-311 -2l1 125l310 -3l-3 389h157l-4 -389l313 3v-125l-313 2v-529l312 2v-125l-312 3l-12 -856h-126l-12 856z" />
    <glyph glyph-name="cent" unicode="&#xa2;" horiz-adv-x="1194" 
d="M170 553c-1 322 165 567 470 599l6 221h114l-6 -219c111 -6 196 -33 231 -57l-29 -132c-56 41 -150 62 -257 62c-187 0 -359 -143 -367 -441c-8 -319 162 -476 356 -476c132 0 239 47 288 79l35 -96c-63 -58 -173 -98 -296 -107l-3 -202h-115l4 204
c-276 29 -431 262 -431 565z" />
    <glyph glyph-name="circumflex" unicode="&#x2c6;" horiz-adv-x="833" 
d="M145 1302l-97 43l297 347h149l291 -346l-103 -44l-263 263z" />
    <glyph glyph-name="tilde" unicode="&#x2dc;" horiz-adv-x="917" 
d="M114 1408l-66 54c41 85 140 176 259 176c168 0 182 -148 304 -148c94 0 154 59 192 104l67 -56c-46 -91 -140 -175 -259 -175c-176 0 -183 149 -306 149c-86 0 -153 -60 -191 -104z" />
    <glyph glyph-name="onehalf" unicode="&#xbd;" horiz-adv-x="2428" 
d="M1502 -3l-33 86c224 109 577 364 577 602c0 139 -83 209 -223 209c-118 0 -222 -53 -305 -159l-70 84c62 95 214 196 403 196c250 0 359 -148 358 -303c-2 -232 -207 -435 -478 -593l545 4v-126h-774zM487 662v825c-71 -18 -138 -63 -239 -85l-32 92
c121 35 303 155 350 194l82 -21v-1005h-161zM764 0l539 1530h152l-541 -1530h-150z" />
    <glyph glyph-name="twosuperior" unicode="&#xb2;" horiz-adv-x="1194" 
d="M231 679l-33 86c224 109 577 364 577 602c0 139 -83 209 -223 209c-118 0 -222 -53 -305 -159l-70 84c62 95 214 196 403 196c250 0 359 -148 358 -303c-2 -232 -207 -435 -478 -593l545 4v-126h-774z" />
    <glyph glyph-name="onesuperior" unicode="&#xb9;" horiz-adv-x="1009" 
d="M479 662v825c-71 -18 -138 -63 -239 -85l-32 92c121 35 303 155 350 194l82 -21v-1005h-161z" />
    <glyph glyph-name="onequarter" unicode="&#xbc;" horiz-adv-x="2428" 
d="M1374 227l-41 72l474 832h52l99 -59l-384 -629l-56 -100h397v2l6 280l149 16v-298h192l1 -116h-193v-283h-156v283h-540zM763 0l539 1530h152l-541 -1530h-150zM487 662v825c-71 -18 -138 -63 -239 -85l-32 92c121 35 303 155 350 194l82 -21v-1005h-161z" />
    <glyph glyph-name="threequarters" unicode="&#xbe;" horiz-adv-x="2428" 
d="M1374 227l-41 72l474 832h52l99 -59l-384 -629l-56 -100h397v2l6 280l149 16v-298h192l1 -116h-193v-283h-156v283h-540zM160 626l-10 110c76 -23 134 -35 225 -34c222 2 304 100 304 224c2 117 -90 198 -243 200l-119 -33l-29 98c53 11 122 34 167 52
c105 42 164 111 161 202c-2 78 -72 152 -215 143c-81 -4 -179 -40 -246 -89l-48 92c81 67 231 105 310 108c237 7 352 -105 352 -237c0 -116 -71 -212 -216 -272c207 -6 287 -143 287 -257c0 -192 -144 -345 -451 -345c-74 0 -162 17 -229 38zM763 0l539 1530h152
l-541 -1530h-150z" />
    <glyph glyph-name="threesuperior" unicode="&#xb3;" horiz-adv-x="1194" 
d="M308 626l-10 110c76 -23 134 -35 225 -34c222 2 304 100 304 224c2 117 -90 198 -243 200l-119 -33l-29 98c53 11 122 34 167 52c105 42 164 111 161 202c-2 78 -72 152 -215 143c-81 -4 -179 -40 -246 -89l-48 92c81 67 231 105 310 108c237 7 352 -105 352 -237
c0 -116 -71 -212 -216 -272c207 -6 287 -143 287 -257c0 -192 -144 -345 -451 -345c-74 0 -162 17 -229 38z" />
    <glyph glyph-name="percent" unicode="%" horiz-adv-x="1944" 
d="M567 0l658 1530h145l-658 -1530h-145zM431 686c-218 -4 -346 182 -346 397c0 261 179 403 375 409c241 6 346 -177 346 -401c0 -259 -179 -400 -375 -405zM441 798c128 2 216 107 216 288c0 174 -71 296 -206 294c-129 -2 -217 -112 -217 -291c0 -163 77 -292 207 -291z
M1138 452c0 261 179 403 375 409c241 7 345 -177 345 -400c0 -260 -179 -400 -374 -405c-218 -5 -346 181 -346 396zM1287 458c0 -163 77 -291 206 -290s216 107 216 288c0 173 -70 296 -205 294c-130 -2 -217 -112 -217 -292z" />
    <glyph glyph-name="oslash" unicode="&#xf8;" horiz-adv-x="1225" 
d="M312 -168l66 198c-198 93 -278 316 -275 561c5 364 229 565 521 565c46 0 89 -5 128 -14l65 194l96 -28l-67 -198c196 -92 278 -311 276 -556c-6 -363 -224 -570 -519 -570c-47 0 -90 5 -130 14l-65 -193zM424 166l287 855c-27 9 -58 13 -90 14
c-217 3 -347 -161 -348 -446c-1 -178 46 -339 151 -423zM513 117c28 -9 60 -14 94 -14c218 -3 344 173 345 458c0 179 -48 333 -151 414z" />
    <glyph glyph-name="Thorn" unicode="&#xde;" horiz-adv-x="1269" 
d="M206 0v1522h169v-292c89 6 200 18 293 18c320 0 517 -139 517 -456c0 -331 -215 -500 -568 -500c-96 0 -194 9 -242 12v-304h-169zM375 429c68 -9 162 -14 225 -14c245 0 416 90 416 375c0 234 -136 341 -403 336c-72 -2 -175 -11 -238 -22v-675z" />
    <glyph glyph-name="ordfeminine" unicode="&#xaa;" horiz-adv-x="1032" 
d="M445 678c-179 0 -306 86 -306 246c0 131 72 201 179 241c119 45 291 57 399 57v79c0 143 -66 178 -215 178c-108 0 -253 -55 -296 -86l-43 93c37 35 217 111 372 111c203 0 333 -67 333 -293v-619h-54c-56 0 -88 -3 -88 56v31c-55 -46 -173 -94 -281 -94zM472 790
c89 0 199 41 245 70v268c-115 0 -246 -4 -322 -40c-61 -29 -108 -65 -108 -154c0 -90 70 -144 185 -144z" />
    <glyph glyph-name="ordmasculine" unicode="&#xba;" horiz-adv-x="1033" 
d="M511 675c-251 0 -400 186 -397 473c5 326 226 449 419 449c251 0 390 -187 386 -467c-5 -327 -208 -455 -408 -455zM519 789c141 1 240 98 242 340c1 221 -84 357 -236 356c-135 -2 -251 -94 -252 -337c-1 -220 92 -361 246 -359z" />
    <glyph glyph-name="section" unicode="&#xa7;" horiz-adv-x="1358" 
d="M227 -100l33 127c54 -39 199 -95 391 -94c170 1 333 51 333 192c0 291 -766 248 -766 658c0 120 59 226 140 303c-77 62 -128 141 -128 256c0 263 262 331 469 331c185 0 304 -39 361 -73l-33 -127c-46 31 -152 75 -331 74c-161 -1 -313 -47 -313 -187
c0 -333 761 -289 761 -728c0 -107 -47 -202 -116 -276c65 -54 108 -122 108 -216c0 -259 -271 -333 -488 -333c-196 0 -357 50 -421 93zM371 810c0 -228 337 -272 564 -393c31 57 57 128 57 188c0 243 -320 296 -546 423c-35 -57 -75 -141 -75 -218z" />
    <glyph glyph-name="AE" unicode="&#xc6;" horiz-adv-x="1850" 
d="M-55 0l731 1522h1034v-131h-702v-541h526v-131h-526v-586h776v-133h-945v417h-506l-199 -417h-189zM393 544h446v866h-32z" />
    <glyph glyph-name="dollar" unicode="$" horiz-adv-x="1382" 
d="M238 74l41 139c81 -50 236 -94 380 -94c211 0 345 79 345 247c0 174 -151 243 -364 340c-198 90 -398 231 -398 456c0 248 204 351 411 372l4 218h124l-3 -215c165 -7 265 -48 315 -81l-35 -133c-74 48 -169 82 -326 82c-162 0 -329 -69 -328 -221
c0 -171 121 -242 337 -346c203 -97 429 -212 429 -453c0 -248 -176 -381 -435 -399l-2 -221h-124l2 221c-175 9 -324 54 -373 88z" />
    <glyph glyph-name="Oslash" unicode="&#xd8;" horiz-adv-x="1572" 
d="M399 -167l77 215c-236 117 -372 385 -365 721c10 506 314 766 699 769c69 0 133 -9 193 -26l78 218l96 -28l-81 -225c234 -111 371 -370 365 -713c-10 -505 -296 -772 -681 -780c-76 -1 -147 8 -211 27l-74 -205zM527 188l430 1197c-47 16 -98 24 -153 24
c-291 -3 -520 -218 -522 -651c-2 -243 82 -460 245 -570zM616 142c51 -19 107 -29 169 -28c300 2 502 232 505 658c0 246 -82 463 -243 568z" />
    <glyph glyph-name="Euro" unicode="&#x20ac;" horiz-adv-x="1522" 
d="M119 527v110h194c-1 27 -2 55 -2 83c0 63 4 122 12 179h-173v109h193c81 329 308 521 630 530c203 6 287 -42 369 -63l-41 -134c-78 42 -167 69 -332 70c-209 0 -387 -129 -451 -403h587v-109h-605c-5 -42 -7 -86 -7 -132c0 -45 2 -88 5 -130h574v-110h-562
c42 -259 166 -432 430 -432c178 0 310 50 385 92l46 -126c-88 -14 -163 -89 -452 -89c-342 0 -541 219 -594 555h-206z" />
    <glyph glyph-name="mu" unicode="&#xb5;" horiz-adv-x="1359" 
d="M348 113l24 -484h-156v1511h166v-756c0 -185 90 -268 263 -269c116 0 240 82 288 120v905h166v-912c0 -88 14 -107 41 -107c16 0 49 7 90 42l24 -76c-17 -29 -100 -100 -191 -100c-69 0 -112 41 -108 151c-51 -52 -162 -154 -324 -154c-117 0 -219 27 -283 129z" />
    <glyph glyph-name="thorn" unicode="&#xfe;" horiz-adv-x="1248" 
d="M345 10l10 -161v-356h-167v2168h167v-475l-7 -170c59 57 166 140 347 140c249 0 450 -179 450 -544c0 -373 -232 -629 -574 -629c-78 0 -159 12 -226 27zM355 155c38 -29 129 -49 234 -49c202 0 383 159 386 484c2 282 -111 435 -325 435c-127 0 -239 -65 -295 -116v-754
z" />
    <glyph glyph-name="oe" unicode="&#x153;" horiz-adv-x="1979" 
d="M105 591c6 364 230 565 521 565c206 0 339 -94 415 -236c84 145 228 233 424 236c242 3 403 -168 409 -428c0 -73 0 -128 -8 -175h-748c0 -13 0 -27 1 -40c9 -293 163 -402 373 -402c103 0 253 36 313 75l33 -97c-76 -62 -246 -105 -387 -105c-198 0 -340 82 -421 231
c-90 -150 -244 -231 -428 -231c-362 0 -501 285 -497 607zM1125 665h592c11 209 -56 372 -263 372c-168 0 -300 -109 -329 -372zM607 103c218 -3 347 173 348 458c1 262 -105 472 -333 474c-214 3 -346 -161 -347 -446c-1 -260 100 -483 332 -486z" />
    <glyph glyph-name="OE" unicode="&#x152;" horiz-adv-x="2057" 
d="M110 764c9 503 303 761 706 774c89 2 193 -16 278 -66v50h823v-131h-654v-539h485v-132h-485v-586h728v-134h-897v74c-85 -56 -180 -87 -308 -90c-420 -8 -685 326 -676 780zM793 112c128 0 231 45 301 106v1105c-65 51 -157 86 -282 86c-268 0 -532 -199 -532 -654
c0 -345 174 -643 513 -643z" />
    <glyph glyph-name="trademark" unicode="&#x2122;" horiz-adv-x="2218" 
d="M1033 767l37 779h221l188 -474l40 -139l33 138l177 475h208l67 -779h-136l-35 520l-9 169l-48 -136l-211 -558h-91l-223 542l-62 153l-3 -152l-23 -538h-130zM458 767v663l-269 -2v118h685v-118l-276 2v-663h-140z" />
    <glyph glyph-name="perthousand" unicode="&#x2030;" horiz-adv-x="2767" 
d="M1961 452c0 261 179 403 376 409c240 7 345 -177 345 -400c0 -260 -179 -400 -375 -405c-218 -5 -346 181 -346 396zM2111 458c0 -163 76 -291 206 -290c129 1 216 107 216 288c0 173 -70 296 -206 294c-130 -2 -216 -112 -216 -292zM567 0l658 1530h145l-658 -1530h-145
zM431 686c-218 -4 -346 182 -346 397c0 261 179 403 375 409c241 6 346 -177 346 -401c0 -259 -179 -400 -375 -405zM441 798c128 2 216 107 216 288c0 174 -71 296 -206 294c-129 -2 -217 -112 -217 -291c0 -163 77 -292 207 -291zM1138 452c0 261 179 403 375 409
c241 7 345 -177 345 -400c0 -260 -179 -400 -374 -405c-218 -5 -346 181 -346 396zM1287 458c0 -163 77 -291 206 -290s216 107 216 288c0 173 -70 296 -205 294c-130 -2 -217 -112 -217 -292z" />
    <glyph glyph-name="Eth" unicode="&#xd0;" horiz-adv-x="1479" 
d="M206 0v737h-144v114h144v671c12 0 107 0 120 1c95 0 218 13 338 13c483 0 721 -271 720 -731c0 -499 -269 -828 -744 -821c-86 2 -221 13 -323 14c-20 1 -103 2 -111 2zM375 128c77 -11 202 -19 290 -18c321 4 541 210 543 670c2 447 -196 633 -584 633
c-96 0 -180 -7 -249 -14v-548h434v-114h-434v-609z" />
    <glyph glyph-name="florin" unicode="&#x192;" horiz-adv-x="1119" 
d="M325 -356l115 1369h-221l6 88l225 40l8 68c42 346 223 477 442 477c89 0 133 -11 147 -17l-10 -137c-16 10 -69 19 -158 19c-128 0 -229 -77 -253 -295l-14 -115h320l-9 -128h-321l-113 -1369h-164z" />
    <glyph glyph-name="DEL" horiz-adv-x="0" 
 />
    <glyph glyph-name="nbspace" unicode="&#xa0;" horiz-adv-x="655" 
 />
    <glyph glyph-name="Cacute" unicode="&#x106;" horiz-adv-x="1328" 
d="M107 754c0 504 315 784 696 784c231 0 335 -44 397 -58l-24 -150c-46 15 -135 70 -364 70c-316 0 -537 -228 -537 -634c0 -371 193 -648 527 -648c190 0 341 55 395 90l2 -144c-92 -30 -188 -80 -404 -80c-418 0 -688 309 -688 770zM755 1589l-72 71
c45 36 307 270 347 315l111 -102c-105 -105 -262 -223 -386 -284z" />
    <glyph glyph-name="K" unicode="K" horiz-adv-x="1364" 
d="M206 0v1522h169v-821l675 821h201l-541 -646c101 -159 380 -555 500 -765l67 -111h-196c-16 25 -27 51 -62 113c-103 182 -299 461 -415 640l-229 -265v-488h-169z" />
    <glyph glyph-name="Scaron" unicode="&#x160;" horiz-adv-x="1154" 
d="M136 74l41 139c81 -50 236 -94 380 -94c211 0 345 79 345 247c0 174 -151 243 -364 340c-198 90 -398 231 -398 456c0 280 260 376 491 376c192 0 306 -46 360 -82l-35 -133c-74 48 -169 82 -326 82c-162 0 -329 -69 -328 -221c0 -171 121 -242 337 -346
c203 -97 429 -212 429 -453c0 -268 -206 -401 -500 -401c-200 0 -377 53 -432 90zM545 1667l-268 269l97 46l244 -202l248 202l92 -44l-265 -271h-148z" />
    <glyph glyph-name="Ydieresis" unicode="&#x178;" horiz-adv-x="1249" 
d="M548 0v584l-517 938h181l374 -701l51 -115l44 115l359 701h179l-499 -935v-587h-172zM878 1690c-58 0 -105 38 -105 108c0 74 60 124 121 124c72 0 105 -44 105 -109c0 -77 -57 -123 -121 -123zM398 1690c-57 0 -104 38 -104 108c0 74 59 124 121 124
c71 0 104 -44 104 -109c0 -77 -56 -123 -121 -123z" />
    <glyph glyph-name="Zcaron" unicode="&#x17d;" horiz-adv-x="1309" 
d="M613 1667l-268 269l97 46l244 -202l248 202l92 -44l-265 -271h-148zM106 66l808 1209l85 112h-810v135h995l36 -64l-805 -1219l-86 -106h849v-133h-1036z" />
    <glyph glyph-name="Ntilde" unicode="&#xd1;" horiz-adv-x="1553" 
d="M443 1713l-66 54c42 96 160 177 267 177c166 0 181 -150 302 -150c81 0 148 60 186 105l67 -56c-43 -96 -160 -176 -267 -176c-166 0 -181 154 -304 154c-80 0 -147 -62 -185 -108zM205 0v1522h157l701 -1060l142 -247l-12 311v996h155v-1522h-155l-687 1034l-156 265
l11 -329v-970h-156z" />
    <glyph glyph-name="Ograve" unicode="&#xd2;" horiz-adv-x="1572" 
d="M857 1589c-111 56 -293 185 -387 284l111 102c40 -45 302 -279 347 -315zM111 769c10 506 314 766 699 769c403 3 660 -308 651 -774c-10 -505 -296 -772 -681 -780c-420 -9 -678 325 -669 785zM785 114c300 2 502 232 505 658c1 350 -166 639 -486 637
c-291 -3 -520 -218 -522 -651c-2 -348 171 -646 503 -644z" />
    <glyph glyph-name="Oacute" unicode="&#xd3;" horiz-adv-x="1572" 
d="M761 1589l-72 71c45 36 307 270 347 315l111 -102c-105 -105 -262 -223 -386 -284zM111 769c10 506 314 766 699 769c403 3 660 -308 651 -774c-10 -505 -296 -772 -681 -780c-420 -9 -678 325 -669 785zM785 114c300 2 502 232 505 658c1 350 -166 639 -486 637
c-291 -3 -520 -218 -522 -651c-2 -348 171 -646 503 -644z" />
    <glyph glyph-name="Ocircumflex" unicode="&#xd4;" horiz-adv-x="1572" 
d="M111 769c10 506 314 766 699 769c403 3 660 -308 651 -774c-10 -505 -296 -772 -681 -780c-420 -9 -678 325 -669 785zM785 114c300 2 502 232 505 658c1 350 -166 639 -486 637c-291 -3 -520 -218 -522 -651c-2 -348 171 -646 503 -644zM561 1639l-104 45l277 298h149
l280 -296l-110 -47l-244 223z" />
    <glyph glyph-name="Otilde" unicode="&#xd5;" horiz-adv-x="1572" 
d="M465 1713l-66 54c42 96 160 177 267 177c166 0 181 -150 302 -150c81 0 148 60 186 105l67 -56c-43 -96 -160 -176 -267 -176c-166 0 -181 154 -304 154c-80 0 -147 -62 -185 -108zM111 769c10 506 314 766 699 769c403 3 660 -308 651 -774
c-10 -505 -296 -772 -681 -780c-420 -9 -678 325 -669 785zM785 114c300 2 502 232 505 658c1 350 -166 639 -486 637c-291 -3 -520 -218 -522 -651c-2 -348 171 -646 503 -644z" />
    <glyph glyph-name="Odieresis" unicode="&#xd6;" horiz-adv-x="1572" 
d="M1041 1690c-58 0 -105 38 -105 108c0 74 60 124 121 124c72 0 105 -44 105 -109c0 -77 -57 -123 -121 -123zM561 1690c-57 0 -104 38 -104 108c0 74 59 124 121 124c71 0 104 -44 104 -109c0 -77 -56 -123 -121 -123zM111 769c10 506 314 766 699 769
c403 3 660 -308 651 -774c-10 -505 -296 -772 -681 -780c-420 -9 -678 325 -669 785zM785 114c300 2 502 232 505 658c1 350 -166 639 -486 637c-291 -3 -520 -218 -522 -651c-2 -348 171 -646 503 -644z" />
    <glyph glyph-name="Racute" unicode="&#x154;" horiz-adv-x="1359" 
d="M206 0v1522s89 1 100 1c95 1 229 13 360 13c309 0 522 -111 522 -420c0 -230 -123 -373 -309 -426c149 -90 258 -409 357 -588c21 -39 40 -74 58 -102h-192c-16 21 -26 44 -54 102c-87 178 -194 520 -364 562c-79 -3 -177 -3 -309 -1v-663h-169zM375 783
c49 -5 226 -6 284 -6c214 2 355 109 356 331c0 217 -116 303 -376 303c-91 0 -202 -5 -264 -16v-612zM655 1589l-72 71c45 36 307 270 347 315l111 -102c-105 -105 -262 -223 -386 -284z" />
    <glyph glyph-name="Rcaron" unicode="&#x158;" horiz-adv-x="1359" 
d="M629 1667l-268 269l97 46l244 -202l248 202l92 -44l-265 -271h-148zM206 0v1522s89 1 100 1c95 1 229 13 360 13c309 0 522 -111 522 -420c0 -230 -123 -373 -309 -426c149 -90 258 -409 357 -588c21 -39 40 -74 58 -102h-192c-16 21 -26 44 -54 102
c-87 178 -194 520 -364 562c-79 -3 -177 -3 -309 -1v-663h-169zM375 783c49 -5 226 -6 284 -6c214 2 355 109 356 331c0 217 -116 303 -376 303c-91 0 -202 -5 -264 -16v-612z" />
    <glyph glyph-name="Ugrave" unicode="&#xd9;" horiz-adv-x="1474" 
d="M797 1589c-111 56 -293 185 -387 284l111 102c40 -45 302 -279 347 -315zM171 644v879h169l-1 -839c0 -442 153 -567 410 -567c241 0 387 131 387 568v837h168v-877c0 -439 -186 -661 -560 -661c-402 0 -574 232 -573 660z" />
    <glyph glyph-name="Uacute" unicode="&#xda;" horiz-adv-x="1474" 
d="M701 1589l-72 71c45 36 307 270 347 315l111 -102c-105 -105 -262 -223 -386 -284zM171 644v879h169l-1 -839c0 -442 153 -567 410 -567c241 0 387 131 387 568v837h168v-877c0 -439 -186 -661 -560 -661c-402 0 -574 232 -573 660z" />
    <glyph glyph-name="Ucircumflex" unicode="&#xdb;" horiz-adv-x="1474" 
d="M171 644v879h169l-1 -839c0 -442 153 -567 410 -567c241 0 387 131 387 568v837h168v-877c0 -439 -186 -661 -560 -661c-402 0 -574 232 -573 660zM500 1639l-104 45l277 298h149l280 -296l-110 -47l-244 223z" />
    <glyph glyph-name="Udieresis" unicode="&#xdc;" horiz-adv-x="1474" 
d="M980 1690c-58 0 -105 38 -105 108c0 74 60 124 121 124c72 0 105 -44 105 -109c0 -77 -57 -123 -121 -123zM500 1690c-57 0 -104 38 -104 108c0 74 59 124 121 124c71 0 104 -44 104 -109c0 -77 -56 -123 -121 -123zM171 644v879h169l-1 -839c0 -442 153 -567 410 -567
c241 0 387 131 387 568v837h168v-877c0 -439 -186 -661 -560 -661c-402 0 -574 232 -573 660z" />
    <glyph glyph-name="Yacute" unicode="&#xdd;" horiz-adv-x="1249" 
d="M548 0v584l-517 938h181l374 -701l51 -115l44 115l359 701h179l-499 -935v-587h-172zM598 1589l-72 71c45 36 307 270 347 315l111 -102c-105 -105 -262 -223 -386 -284z" />
    <glyph glyph-name="ae" unicode="&#xe6;" horiz-adv-x="1826" 
d="M110 301c0 150 92 255 246 314c133 52 312 67 443 67v119c0 202 -100 229 -252 229c-115 0 -278 -56 -343 -99l-42 112c41 26 243 114 426 114c167 0 287 -38 336 -182c87 112 218 179 389 181c241 3 402 -168 408 -428c0 -73 1 -128 -8 -175h-748c0 -13 0 -27 1 -40
c10 -298 163 -402 374 -402c102 0 253 36 313 75l33 -97c-76 -62 -246 -105 -388 -105c-187 0 -326 70 -409 204c-95 -117 -243 -204 -428 -204c-202 0 -351 119 -351 317zM972 665h592c12 209 -55 372 -262 372c-168 0 -300 -109 -330 -372zM278 314
c0 -117 62 -205 225 -205c149 0 290 97 341 173c-29 79 -43 174 -43 283v10c-116 0 -264 -15 -353 -53c-118 -44 -170 -110 -170 -208z" />
    <glyph glyph-name="Agrave" unicode="&#xc0;" 
d="M33 0l588 1538h166l574 -1538h-183l-147 418h-665l-153 -418h-180zM412 545h575l-244 695l-38 120l-38 -121zM747 1589c-111 56 -293 185 -387 284l111 102c40 -45 302 -279 347 -315z" />
    <glyph glyph-name="Aacute" unicode="&#xc1;" 
d="M33 0l588 1538h166l574 -1538h-183l-147 418h-665l-153 -418h-180zM412 545h575l-244 695l-38 120l-38 -121zM651 1589l-72 71c45 36 307 270 347 315l111 -102c-105 -105 -262 -223 -386 -284z" />
    <glyph glyph-name="Acircumflex" unicode="&#xc2;" 
d="M33 0l588 1538h166l574 -1538h-183l-147 418h-665l-153 -418h-180zM412 545h575l-244 695l-38 120l-38 -121zM450 1639l-104 45l277 298h149l280 -296l-110 -47l-244 223z" />
    <glyph glyph-name="Atilde" unicode="&#xc3;" 
d="M33 0l588 1538h166l574 -1538h-183l-147 418h-665l-153 -418h-180zM412 545h575l-244 695l-38 120l-38 -121zM354 1713l-66 54c42 96 160 177 267 177c166 0 181 -150 302 -150c81 0 148 60 186 105l67 -56c-43 -96 -160 -176 -267 -176c-166 0 -181 154 -304 154
c-80 0 -147 -62 -185 -108z" />
    <glyph glyph-name="Adieresis" unicode="&#xc4;" 
d="M33 0l588 1538h166l574 -1538h-183l-147 418h-665l-153 -418h-180zM412 545h575l-244 695l-38 120l-38 -121zM930 1690c-58 0 -105 38 -105 108c0 74 60 124 121 124c72 0 105 -44 105 -109c0 -77 -57 -123 -121 -123zM450 1690c-57 0 -104 38 -104 108
c0 74 59 124 121 124c71 0 104 -44 104 -109c0 -77 -56 -123 -121 -123z" />
    <glyph glyph-name="Aring" unicode="&#xc5;" 
d="M33 0l561 1469c-131 30 -209 120 -206 252c3 184 160 251 311 251c189 0 309 -88 308 -253c-2 -138 -85 -216 -196 -246l550 -1473h-183l-147 418h-665l-153 -418h-180zM695 1556c108 -1 194 44 194 162c0 105 -79 158 -191 159c-93 0 -190 -35 -191 -156
c-1 -101 69 -163 188 -165zM412 545h575l-244 695l-38 120l-38 -121z" />
    <glyph glyph-name="Ccedilla" unicode="&#xc7;" horiz-adv-x="1328" 
d="M522 -327c17 -11 53 -18 90 -18c80 0 137 47 143 165c6 77 0 128 -12 166c-388 24 -636 326 -636 768c0 504 315 784 696 784c231 0 335 -44 397 -58l-24 -150c-46 15 -135 70 -364 70c-316 0 -537 -228 -537 -634c0 -371 193 -648 527 -648c190 0 341 55 395 90l2 -144
c-84 -28 -171 -71 -350 -78c24 -53 35 -128 30 -218c-10 -169 -113 -232 -229 -232c-49 0 -117 12 -140 28z" />
    <glyph glyph-name="Egrave" unicode="&#xc8;" horiz-adv-x="1203" 
d="M722 1589c-111 56 -293 185 -387 284l111 102c40 -45 302 -279 347 -315zM206 0v1522h858v-131h-689v-539h503v-131h-503v-588h762v-133h-931z" />
    <glyph glyph-name="Eacute" unicode="&#xc9;" horiz-adv-x="1203" 
d="M625 1589l-72 71c45 36 307 270 347 315l111 -102c-105 -105 -262 -223 -386 -284zM206 0v1522h858v-131h-689v-539h503v-131h-503v-588h762v-133h-931z" />
    <glyph glyph-name="Ecircumflex" unicode="&#xca;" horiz-adv-x="1203" 
d="M206 0v1522h858v-131h-689v-539h503v-131h-503v-588h762v-133h-931zM425 1639l-104 45l277 298h149l280 -296l-110 -47l-244 223z" />
    <glyph glyph-name="Edieresis" unicode="&#xcb;" horiz-adv-x="1203" 
d="M905 1690c-58 0 -105 38 -105 108c0 74 60 124 121 124c72 0 105 -44 105 -109c0 -77 -57 -123 -121 -123zM425 1690c-57 0 -104 38 -104 108c0 74 59 124 121 124c71 0 104 -44 104 -109c0 -77 -56 -123 -121 -123zM206 0v1522h858v-131h-689v-539h503v-131h-503v-588
h762v-133h-931z" />
    <glyph glyph-name="Igrave" unicode="&#xcc;" horiz-adv-x="613" 
d="M221 0v1522h171v-1522h-171zM356 1589c-111 56 -293 185 -387 284l111 102c40 -45 302 -279 347 -315z" />
    <glyph glyph-name="Iacute" unicode="&#xcd;" horiz-adv-x="613" 
d="M221 0v1522h171v-1522h-171zM260 1589l-72 71c45 36 307 270 347 315l111 -102c-105 -105 -262 -223 -386 -284z" />
    <glyph glyph-name="Icircumflex" unicode="&#xce;" horiz-adv-x="613" 
d="M221 0v1522h171v-1522h-171zM59 1639l-104 45l277 298h149l280 -296l-110 -47l-244 223z" />
    <glyph glyph-name="Idieresis" unicode="&#xcf;" horiz-adv-x="613" 
d="M221 0v1522h171v-1522h-171zM539 1690c-58 0 -105 38 -105 108c0 74 60 124 121 124c72 0 105 -44 105 -109c0 -77 -57 -123 -121 -123zM59 1690c-57 0 -104 38 -104 108c0 74 59 124 121 124c71 0 104 -44 104 -109c0 -77 -56 -123 -121 -123z" />
    <glyph glyph-name="ccedilla" unicode="&#xe7;" horiz-adv-x="1012" 
d="M304 -327c17 -11 53 -18 90 -18c80 0 137 47 143 165c7 79 0 131 -13 169c-267 35 -418 265 -418 564c-1 345 190 603 538 603c134 0 237 -32 277 -59l-29 -132c-56 41 -150 62 -257 62c-187 0 -359 -143 -367 -441c-8 -319 162 -476 356 -476c132 0 239 47 288 79
l35 -96c-67 -61 -185 -102 -316 -108c24 -53 35 -127 30 -217c-10 -169 -113 -232 -229 -232c-49 0 -117 12 -140 28z" />
    <glyph glyph-name="uni1E60" unicode="&#x1e60;" horiz-adv-x="1154" 
d="M611 1691c-58 0 -106 40 -106 110c0 71 61 125 122 125c72 0 105 -47 105 -109c0 -77 -57 -126 -121 -126zM136 74l41 139c81 -50 236 -94 380 -94c211 0 345 79 345 247c0 174 -151 243 -364 340c-198 90 -398 231 -398 456c0 280 260 376 491 376
c192 0 306 -46 360 -82l-35 -133c-74 48 -169 82 -326 82c-162 0 -329 -69 -328 -221c0 -171 121 -242 337 -346c203 -97 429 -212 429 -453c0 -268 -206 -401 -500 -401c-200 0 -377 53 -432 90z" />
    <glyph glyph-name="currency" unicode="&#xa4;" horiz-adv-x="1530" 
d="M216 277l200 200c-59 75 -94 170 -94 274c0 103 35 198 93 272l-199 200l95 98l203 -205c71 48 157 76 249 76c94 0 181 -29 253 -78l205 204l97 -96l-203 -203c57 -74 91 -167 91 -268c0 -102 -34 -195 -92 -269l200 -200l-96 -96l-202 202c-71 -49 -159 -78 -253 -78
c-91 0 -176 27 -247 75l-203 -205zM457 751c0 -173 138 -316 307 -316c170 0 306 143 306 316c0 174 -136 316 -306 316c-169 0 -307 -142 -307 -316z" />
    <glyph glyph-name="ellipsis" unicode="&#x2026;" horiz-adv-x="1983" 
d="M1536 106c-2 75 58 138 122 138c72 0 109 -57 111 -121c1 -79 -57 -139 -122 -139c-59 0 -109 51 -111 122zM875 106c-2 75 58 138 121 138c73 0 110 -57 111 -121c3 -79 -56 -139 -122 -139c-58 0 -108 51 -110 122zM214 106c-1 75 58 138 122 138
c72 0 109 -57 111 -121c2 -79 -57 -139 -123 -139c-58 0 -108 51 -110 122z" />
    <glyph glyph-name="aacute" unicode="&#xe1;" horiz-adv-x="1145" 
d="M110 301c0 150 87 255 246 314c134 50 326 67 445 67v132c0 184 -96 216 -266 216c-116 0 -275 -54 -335 -97l-41 110c39 26 234 114 419 114c232 0 389 -64 389 -350v-823h-68c-58 0 -88 5 -88 80l-1 42c-62 -56 -191 -122 -353 -122c-202 0 -347 119 -347 317zM275 314
c0 -120 67 -205 231 -205c143 0 269 71 295 99v367c-82 0 -256 -13 -353 -53c-114 -43 -173 -107 -173 -208zM547 1315l-86 68c119 130 234 256 337 398l120 -103c-68 -101 -283 -306 -371 -363z" />
    <glyph glyph-name="agrave" unicode="&#xe0;" horiz-adv-x="1145" 
d="M110 301c0 150 87 255 246 314c134 50 326 67 445 67v132c0 184 -96 216 -266 216c-116 0 -275 -54 -335 -97l-41 110c39 26 234 114 419 114c232 0 389 -64 389 -350v-823h-68c-58 0 -88 5 -88 80l-1 42c-62 -56 -191 -122 -353 -122c-202 0 -347 119 -347 317zM275 314
c0 -120 67 -205 231 -205c143 0 269 71 295 99v367c-82 0 -256 -13 -353 -53c-114 -43 -173 -107 -173 -208zM603 1315c-95 63 -292 248 -372 363l120 103c101 -131 220 -265 337 -398z" />
    <glyph glyph-name="adieresis" unicode="&#xe4;" horiz-adv-x="1145" 
d="M110 301c0 150 87 255 246 314c134 50 326 67 445 67v132c0 184 -96 216 -266 216c-116 0 -275 -54 -335 -97l-41 110c39 26 234 114 419 114c232 0 389 -64 389 -350v-823h-68c-58 0 -88 5 -88 80l-1 42c-62 -56 -191 -122 -353 -122c-202 0 -347 119 -347 317zM275 314
c0 -120 67 -205 231 -205c143 0 269 71 295 99v367c-82 0 -256 -13 -353 -53c-114 -43 -173 -107 -173 -208zM800 1408c-55 0 -99 38 -99 106c0 70 58 119 117 119c69 0 99 -43 99 -105c0 -74 -55 -120 -117 -120zM349 1408c-56 0 -100 38 -100 106c0 70 59 119 118 119
c70 0 99 -43 99 -105c0 -74 -55 -120 -117 -120z" />
    <glyph glyph-name="atilde" unicode="&#xe3;" horiz-adv-x="1145" 
d="M110 301c0 150 87 255 246 314c134 50 326 67 445 67v132c0 184 -96 216 -266 216c-116 0 -275 -54 -335 -97l-41 110c39 26 234 114 419 114c232 0 389 -64 389 -350v-823h-68c-58 0 -88 5 -88 80l-1 42c-62 -56 -191 -122 -353 -122c-202 0 -347 119 -347 317zM275 314
c0 -120 67 -205 231 -205c143 0 269 71 295 99v367c-82 0 -256 -13 -353 -53c-114 -43 -173 -107 -173 -208zM236 1408l-66 54c41 85 140 176 259 176c168 0 182 -148 304 -148c94 0 154 59 192 104l67 -56c-46 -91 -140 -175 -259 -175c-176 0 -183 149 -306 149
c-86 0 -153 -60 -191 -104z" />
    <glyph glyph-name="acircumflex" unicode="&#xe2;" horiz-adv-x="1145" 
d="M110 301c0 150 87 255 246 314c134 50 326 67 445 67v132c0 184 -96 216 -266 216c-116 0 -275 -54 -335 -97l-41 110c39 26 234 114 419 114c232 0 389 -64 389 -350v-823h-68c-58 0 -88 5 -88 80l-1 42c-62 -56 -191 -122 -353 -122c-202 0 -347 119 -347 317zM275 314
c0 -120 67 -205 231 -205c143 0 269 71 295 99v367c-82 0 -256 -13 -353 -53c-114 -43 -173 -107 -173 -208zM309 1302l-97 43l297 347h149l291 -346l-103 -44l-263 263z" />
    <glyph glyph-name="aring" unicode="&#xe5;" horiz-adv-x="1145" 
d="M110 301c0 150 87 255 246 314c134 50 326 67 445 67v132c0 184 -96 216 -266 216c-116 0 -275 -54 -335 -97l-41 110c39 26 234 114 419 114c232 0 389 -64 389 -350v-823h-68c-58 0 -88 5 -88 80l-1 42c-62 -56 -191 -122 -353 -122c-202 0 -347 119 -347 317zM275 314
c0 -120 67 -205 231 -205c143 0 269 71 295 99v367c-82 0 -256 -13 -353 -53c-114 -43 -173 -107 -173 -208zM579 1332c-190 0 -309 107 -306 269c3 184 160 257 311 257c189 0 309 -94 308 -258c-2 -184 -149 -268 -313 -268zM580 1429c108 0 194 51 194 170
c0 105 -79 163 -191 164c-93 0 -190 -41 -191 -162c-1 -102 69 -170 188 -172z" />
    <glyph glyph-name="uni1E03" unicode="&#x1e03;" horiz-adv-x="1244" 
d="M184 64v1597h167v-475l-7 -170c59 57 166 140 347 140c249 0 450 -179 450 -544c0 -373 -232 -629 -574 -629c-167 0 -344 54 -383 81zM351 155c38 -29 129 -49 234 -49c202 0 383 159 386 484c2 282 -111 435 -325 435c-127 0 -239 -65 -295 -116v-754zM746 1388
c-58 0 -107 42 -107 114c0 74 62 128 123 128c72 0 107 -48 107 -113c0 -78 -59 -129 -123 -129z" />
    <glyph glyph-name="eacute" unicode="&#xe9;" horiz-adv-x="1128" 
d="M568 1315l-86 68c119 130 234 256 337 398l120 -103c-68 -101 -283 -306 -371 -363zM104 565c0 343 183 587 511 591c241 3 402 -168 409 -428c0 -73 0 -128 -9 -175h-748c0 -13 0 -27 1 -40c10 -293 165 -403 376 -403c103 0 250 37 310 76l32 -97
c-75 -62 -244 -105 -385 -105c-320 0 -497 216 -497 581zM274 665h593c12 209 -55 372 -262 372c-169 0 -301 -109 -331 -372z" />
    <glyph glyph-name="egrave" unicode="&#xe8;" horiz-adv-x="1128" 
d="M104 565c0 343 183 587 511 591c241 3 402 -168 409 -428c0 -73 0 -128 -9 -175h-748c0 -13 0 -27 1 -40c10 -293 165 -403 376 -403c103 0 250 37 310 76l32 -97c-75 -62 -244 -105 -385 -105c-320 0 -497 216 -497 581zM274 665h593c12 209 -55 372 -262 372
c-169 0 -301 -109 -331 -372zM624 1315c-95 63 -292 248 -372 363l120 103c101 -131 220 -265 337 -398z" />
    <glyph glyph-name="edieresis" unicode="&#xeb;" horiz-adv-x="1128" 
d="M821 1408c-55 0 -99 38 -99 106c0 70 58 119 117 119c69 0 99 -43 99 -105c0 -74 -55 -120 -117 -120zM370 1408c-56 0 -100 38 -100 106c0 70 59 119 118 119c70 0 99 -43 99 -105c0 -74 -55 -120 -117 -120zM104 565c0 343 183 587 511 591c241 3 402 -168 409 -428
c0 -73 0 -128 -9 -175h-748c0 -13 0 -27 1 -40c10 -293 165 -403 376 -403c103 0 250 37 310 76l32 -97c-75 -62 -244 -105 -385 -105c-320 0 -497 216 -497 581zM274 665h593c12 209 -55 372 -262 372c-169 0 -301 -109 -331 -372z" />
    <glyph glyph-name="ecircumflex" unicode="&#xea;" horiz-adv-x="1128" 
d="M330 1302l-97 43l297 347h149l291 -346l-103 -44l-263 263zM104 565c0 343 183 587 511 591c241 3 402 -168 409 -428c0 -73 0 -128 -9 -175h-748c0 -13 0 -27 1 -40c10 -293 165 -403 376 -403c103 0 250 37 310 76l32 -97c-75 -62 -244 -105 -385 -105
c-320 0 -497 216 -497 581zM274 665h593c12 209 -55 372 -262 372c-169 0 -301 -109 -331 -372z" />
    <glyph glyph-name="iacute" unicode="&#xed;" horiz-adv-x="588" 
d="M258 1315l-86 68c119 130 234 256 337 398l120 -103c-68 -101 -283 -306 -371 -363zM211 0v1139h166v-1139h-166z" />
    <glyph glyph-name="igrave" unicode="&#xec;" horiz-adv-x="588" 
d="M211 0v1139h166v-1139h-166zM314 1315c-95 63 -292 248 -372 363l120 103c101 -131 220 -265 337 -398z" />
    <glyph glyph-name="idieresis" unicode="&#xef;" horiz-adv-x="588" 
d="M489 1408c-56 0 -100 38 -100 106c0 70 58 119 118 119c69 0 99 -43 99 -105c0 -74 -55 -120 -117 -120zM83 1408c-56 0 -100 38 -100 106c0 70 59 119 118 119c69 0 98 -43 98 -105c0 -74 -55 -120 -116 -120zM211 0v1139h166v-1139h-166z" />
    <glyph glyph-name="icircumflex" unicode="&#xee;" horiz-adv-x="588" 
d="M20 1302l-97 43l297 347h149l291 -346l-103 -44l-263 263zM211 0v1139h166v-1139h-166z" />
    <glyph glyph-name="ntilde" unicode="&#xf1;" horiz-adv-x="1288" 
d="M193 0v1139h149l1 -146c81 61 253 161 419 164c248 4 341 -117 341 -452v-705h-167v706c0 226 -48 320 -243 312c-108 -2 -247 -71 -333 -140v-878h-167zM351 1408l-66 54c41 85 140 176 259 176c168 0 182 -148 304 -148c94 0 154 59 192 104l67 -56
c-46 -91 -140 -175 -259 -175c-176 0 -183 149 -306 149c-86 0 -153 -60 -191 -104z" />
    <glyph glyph-name="oacute" unicode="&#xf3;" horiz-adv-x="1223" 
d="M585 1315l-86 68c119 130 234 256 337 398l120 -103c-68 -101 -283 -306 -371 -363zM105 591c5 364 228 565 518 565c356 0 499 -279 495 -602c-5 -363 -222 -570 -516 -570c-362 0 -501 285 -497 607zM606 103c217 -3 342 173 343 458c1 262 -102 472 -329 474
c-215 3 -344 -161 -345 -446c-1 -260 99 -483 331 -486z" />
    <glyph glyph-name="ograve" unicode="&#xf2;" horiz-adv-x="1223" 
d="M105 591c5 364 228 565 518 565c356 0 499 -279 495 -602c-5 -363 -222 -570 -516 -570c-362 0 -501 285 -497 607zM606 103c217 -3 342 173 343 458c1 262 -102 472 -329 474c-215 3 -344 -161 -345 -446c-1 -260 99 -483 331 -486zM641 1315c-95 63 -292 248 -372 363
l120 103c101 -131 220 -265 337 -398z" />
    <glyph glyph-name="odieresis" unicode="&#xf6;" horiz-adv-x="1223" 
d="M838 1408c-55 0 -99 38 -99 106c0 70 58 119 117 119c69 0 99 -43 99 -105c0 -74 -55 -120 -117 -120zM387 1408c-56 0 -100 38 -100 106c0 70 59 119 118 119c70 0 99 -43 99 -105c0 -74 -55 -120 -117 -120zM105 591c5 364 228 565 518 565c356 0 499 -279 495 -602
c-5 -363 -222 -570 -516 -570c-362 0 -501 285 -497 607zM606 103c217 -3 342 173 343 458c1 262 -102 472 -329 474c-215 3 -344 -161 -345 -446c-1 -260 99 -483 331 -486z" />
    <glyph glyph-name="otilde" unicode="&#xf5;" horiz-adv-x="1223" 
d="M105 591c5 364 228 565 518 565c356 0 499 -279 495 -602c-5 -363 -222 -570 -516 -570c-362 0 -501 285 -497 607zM606 103c217 -3 342 173 343 458c1 262 -102 472 -329 474c-215 3 -344 -161 -345 -446c-1 -260 99 -483 331 -486zM274 1408l-66 54
c41 85 140 176 259 176c168 0 182 -148 304 -148c94 0 154 59 192 104l67 -56c-46 -91 -140 -175 -259 -175c-176 0 -183 149 -306 149c-86 0 -153 -60 -191 -104z" />
    <glyph glyph-name="ocircumflex" unicode="&#xf4;" horiz-adv-x="1223" 
d="M347 1302l-97 43l297 347h149l291 -346l-103 -44l-263 263zM105 591c5 364 228 565 518 565c356 0 499 -279 495 -602c-5 -363 -222 -570 -516 -570c-362 0 -501 285 -497 607zM606 103c217 -3 342 173 343 458c1 262 -102 472 -329 474c-215 3 -344 -161 -345 -446
c-1 -260 99 -483 331 -486z" />
    <glyph glyph-name="scaron" unicode="&#x161;" horiz-adv-x="984" 
d="M442 1322l-297 347l97 43l274 -263l263 263l103 -44l-291 -346h-149zM123 66l26 126c43 -30 190 -82 328 -84c146 0 250 59 250 177c0 120 -136 173 -272 228c-175 71 -325 169 -323 355c4 196 184 287 398 288c133 1 253 -36 293 -59l-28 -127c-39 30 -147 62 -259 62
c-163 0 -248 -65 -249 -155c-2 -120 101 -177 249 -234c150 -59 347 -149 347 -346c0 -200 -155 -313 -398 -313c-146 0 -296 39 -362 82z" />
    <glyph glyph-name="uacute" unicode="&#xfa;" horiz-adv-x="1249" 
d="M607 1315l-86 68c119 130 234 256 337 398l120 -103c-68 -101 -283 -306 -371 -363zM183 471v669h166v-676c0 -285 57 -342 234 -342c116 0 250 59 314 107v911h167v-1152h-64c-53 0 -84 7 -84 68v61c-106 -74 -266 -133 -399 -133c-294 0 -334 198 -334 487z" />
    <glyph glyph-name="ugrave" unicode="&#xf9;" horiz-adv-x="1249" 
d="M183 471v669h166v-676c0 -285 57 -342 234 -342c116 0 250 59 314 107v911h167v-1152h-64c-53 0 -84 7 -84 68v61c-106 -74 -266 -133 -399 -133c-294 0 -334 198 -334 487zM664 1315c-95 63 -292 248 -372 363l120 103c101 -131 220 -265 337 -398z" />
    <glyph glyph-name="udieresis" unicode="&#xfc;" horiz-adv-x="1249" 
d="M860 1408c-55 0 -99 38 -99 106c0 70 58 119 117 119c69 0 99 -43 99 -105c0 -74 -55 -120 -117 -120zM409 1408c-56 0 -100 38 -100 106c0 70 59 119 118 119c70 0 99 -43 99 -105c0 -74 -55 -120 -117 -120zM183 471v669h166v-676c0 -285 57 -342 234 -342
c116 0 250 59 314 107v911h167v-1152h-64c-53 0 -84 7 -84 68v61c-106 -74 -266 -133 -399 -133c-294 0 -334 198 -334 487z" />
    <glyph glyph-name="ucircumflex" unicode="&#xfb;" horiz-adv-x="1249" 
d="M369 1302l-97 43l297 347h149l291 -346l-103 -44l-263 263zM183 471v669h166v-676c0 -285 57 -342 234 -342c116 0 250 59 314 107v911h167v-1152h-64c-53 0 -84 7 -84 68v61c-106 -74 -266 -133 -399 -133c-294 0 -334 198 -334 487z" />
    <glyph glyph-name="yacute" unicode="&#xfd;" horiz-adv-x="1107" 
d="M120 -356c22 -7 70 -12 99 -12c115 0 239 74 314 368h-49l-428 1140h178l274 -782l76 -224l66 224l237 782h180l-392 -1169c-90 -273 -191 -423 -341 -465c-29 -7 -72 -13 -103 -13c-30 0 -99 6 -111 14v137zM547 1315l-86 68c119 130 234 256 337 398l120 -103
c-68 -101 -283 -306 -371 -363z" />
    <glyph glyph-name="ydieresis" unicode="&#xff;" horiz-adv-x="1107" 
d="M120 -356c22 -7 70 -12 99 -12c115 0 239 74 314 368h-49l-428 1140h178l274 -782l76 -224l66 224l237 782h180l-392 -1169c-90 -273 -191 -423 -341 -465c-29 -7 -72 -13 -103 -13c-30 0 -99 6 -111 14v137zM799 1408c-55 0 -99 38 -99 106c0 70 58 119 117 119
c69 0 99 -43 99 -105c0 -74 -55 -120 -117 -120zM348 1408c-56 0 -100 38 -100 106c0 70 59 119 118 119c70 0 99 -43 99 -105c0 -74 -55 -120 -117 -120z" />
    <glyph glyph-name="zcaron" unicode="&#x17e;" horiz-adv-x="1072" 
d="M477 1322l-297 347l97 43l274 -263l263 263l103 -44l-291 -346h-149zM93 65l596 849l69 98h-616v128h812l29 -74l-594 -846l-71 -98h655v-122h-846z" />
  </font>
</defs>
</svg>
