<?xml version="1.0" encoding="utf-8"?>

<!-- License Agreement at http://iconmonstr.com/license/ -->

<!DOCTYPE svg PUBLIC "-//W3C//DTD SVG 1.1//EN" "http://www.w3.org/Graphics/SVG/1.1/DTD/svg11.dtd">
<svg version="1.1" xmlns="http://www.w3.org/2000/svg" xmlns:xlink="http://www.w3.org/1999/xlink" x="0px" y="0px"
	 width="20px" height="20px" viewBox="0 0 512 512" enable-background="new 0 0 512 512" xml:space="preserve">

<style>
svg{
fill: #b3b3b1;
}
</style>

<path id="copyright-icon" d="M373.38,138.62c64.869,64.868,64.882,169.879,0,234.759c-64.872,64.872-169.878,64.882-234.759,0
	c-64.87-64.87-64.882-169.877,0-234.759C203.491,73.75,308.499,73.738,373.38,138.62z M256,50C142.229,50,50,142.229,50,256
	c0,113.77,92.229,206,206,206c113.771,0,206-92.23,206-206C462,142.229,369.771,50,256,50z M257.108,328.064
	c-39.736,0-72.064-32.328-72.064-72.064c0-39.737,32.328-72.065,72.064-72.065c22.326,0,43.936,9.975,59.764,31.802l35.395-23.203
	c-24.405-34.798-59.704-50.881-95.158-50.881c-63.051,0-114.347,51.296-114.347,114.347c0,63.05,51.296,114.345,114.347,114.345
	c35.846,0,70.959-16.378,95.157-50.88l-35.394-23.202C301.122,317.978,279.561,328.064,257.108,328.064z"/>
</svg>
